<svg xmlns="http://www.w3.org/2000/svg"><symbol id="phone" viewBox="0 0 32 32"><path d="M22 20c-2 2-2 4-4 4s-4-2-6-4-4-4-4-6 2-2 4-4-4-8-6-8-6 6-6 6c0 4 4.109 12.109 8 16s12 8 16 8c0 0 6-4 6-6s-6-8-8-6z"/></symbol><symbol id="compass2" viewBox="0 0 32 32"><path d="M16 0C7.163 0 0 7.163 0 16s7.163 16 16 16 16-7.163 16-16S24.837 0 16 0zM3 16C3 8.82 8.82 3 16 3c3.424 0 6.538 1.325 8.86 3.488L12 12 6.488 24.86A12.952 12.952 0 0 1 3 16zm15.286 2.286l-8.003 3.43 3.43-8.003 4.573 4.573zM16 29a12.955 12.955 0 0 1-8.86-3.488L20 20l5.512-12.86A12.952 12.952 0 0 1 29 16c0 7.18-5.82 13-13 13z"/></symbol><symbol id="envelop" viewBox="0 0 32 32"><path d="M29 4H3C1.35 4 0 5.35 0 7v20c0 1.65 1.35 3 3 3h26c1.65 0 3-1.35 3-3V7c0-1.65-1.35-3-3-3zM12.461 17.199L4 23.789V8.113l8.461 9.086zM5.512 8h20.976L16 15.875 5.512 8zm7.278 9.553L16 21l3.21-3.447L25.79 26H6.211l6.58-8.447zm6.749-.354L28 8.113v15.676l-8.461-6.59z"/></symbol><symbol id="arrow-left" viewBox="0 0 32 32"><path d="M1 16l15 15v-9h16V10H16V1z"/></symbol><symbol id="arrow-up" viewBox="0 0 32 32"><path d="M16 1L1 16h9v16h12V16h9z"/></symbol><symbol id="arrow-right" viewBox="0 0 32 32"><path d="M31 16L16 1v9H0v12h16v9z"/></symbol><symbol id="user" viewBox="0 0 448 512"><path d="M224 256c70.7 0 128-57.3 128-128S294.7 0 224 0 96 57.3 96 128s57.3 128 128 128zm89.6 32h-16.7c-22.2 10.2-46.9 16-72.9 16s-50.6-5.8-72.9-16h-16.7C60.2 288 0 348.2 0 422.4V464c0 26.5 21.5 48 48 48h352c26.5 0 48-21.5 48-48v-41.6c0-74.2-60.2-134.4-134.4-134.4z"/></symbol><symbol id="laundry" viewBox="0 0 24 24"><path d="M9.17 16.83a4.008 4.008 0 0 0 5.66 0 4.008 4.008 0 0 0 0-5.66l-5.66 5.66zM18 2.01L6 2c-1.11 0-2 .89-2 2v16c0 1.11.89 2 2 2h12c1.11 0 2-.89 2-2V4c0-1.11-.89-1.99-2-1.99zM10 4c.55 0 1 .45 1 1s-.45 1-1 1-1-.45-1-1 .45-1 1-1zM7 4c.55 0 1 .45 1 1s-.45 1-1 1-1-.45-1-1 .45-1 1-1zm5 16c-3.31 0-6-2.69-6-6s2.69-6 6-6 6 2.69 6 6-2.69 6-6 6z"/><path fill="none" d="M0 0h24v24H0z"/></symbol><symbol id="certify" viewBox="-67 0 512 512"><path d="M188.969 107.973c-50.024 0-90.723 40.695-90.723 90.718 0 50.028 40.7 90.723 90.723 90.723s90.719-40.695 90.719-90.723c0-50.023-40.696-90.718-90.72-90.718zm0 0"/><path d="M377.934 260.09l-27.512-61.399 27.512-61.398-58.344-33.504-13.832-65.844-66.899 7.192L188.97 0l-49.895 45.137-66.894-7.188-13.832 65.844L0 137.293l27.512 61.398L0 260.09l58.348 33.504 7.492 35.672-62.281 132.34 65 .851L110.645 512l61.218-130.09 17.106 15.473 17.101-15.473L267.293 512l42.082-49.543 65-.852-62.281-132.34 7.496-35.671zm-188.965 59.32c-66.567 0-120.719-54.152-120.719-120.719S122.402 77.973 188.969 77.973c66.562 0 120.719 54.156 120.719 120.718 0 66.567-54.157 120.72-120.72 120.72zm0 0"/></symbol><symbol id="thumbs-up" viewBox="0 0 512 512"><path d="M104 224H24c-13.255 0-24 10.745-24 24v240c0 13.255 10.745 24 24 24h80c13.255 0 24-10.745 24-24V248c0-13.255-10.745-24-24-24zM64 472c-13.255 0-24-10.745-24-24s10.745-24 24-24 24 10.745 24 24-10.745 24-24 24zM384 81.452c0 42.416-25.97 66.208-33.277 94.548h101.723c33.397 0 59.397 27.746 59.553 58.098.084 17.938-7.546 37.249-19.439 49.197l-.11.11c9.836 23.337 8.237 56.037-9.308 79.469 8.681 25.895-.069 57.704-16.382 74.757 4.298 17.598 2.244 32.575-6.148 44.632C440.202 511.587 389.616 512 346.839 512l-2.845-.001c-48.287-.017-87.806-17.598-119.56-31.725-15.957-7.099-36.821-15.887-52.651-16.178-6.54-.12-11.783-5.457-11.783-11.998v-213.77c0-3.2 1.282-6.271 3.558-8.521 39.614-39.144 56.648-80.587 89.117-113.111 14.804-14.832 20.188-37.236 25.393-58.902C282.515 39.293 291.817 0 312 0c24 0 72 8 72 81.452z"/></symbol><symbol id="info" viewBox="0 0 192 512"><path d="M20 424.229h20V279.771H20c-11.046 0-20-8.954-20-20V212c0-11.046 8.954-20 20-20h112c11.046 0 20 8.954 20 20v212.229h20c11.046 0 20 8.954 20 20V492c0 11.046-8.954 20-20 20H20c-11.046 0-20-8.954-20-20v-47.771c0-11.046 8.954-20 20-20zM96 0C56.235 0 24 32.235 24 72s32.235 72 72 72 72-32.235 72-72S135.764 0 96 0z"/></symbol></svg>